<svg width="24" height="24" viewBox="0 0 24 24" fill="none" xmlns="http://www.w3.org/2000/svg">
    <g clip-path="url(#clip0_1_927)">
        <path d="M12 12.9L9.96996 14.9C9.50996 15.36 9.14996 15.93 9.03996 16.57C8.73996 18.41 10.18 20 12 20C13.82 20 15.26 18.41 14.96 16.58C14.85 15.94 14.5 15.36 14.03 14.91L12 12.9Z" fill="#FFD438"/>
        <path d="M15.56 6.54999C14.38 8.01999 12 7.18999 12 5.29999V3.76999C12 2.96999 11.11 2.48999 10.45 2.92999C8.12 4.48999 4 7.96999 4 13C4 15.92 5.56 18.47 7.89 19.86C7.18 18.84 6.83 17.55 7.08 16.18C7.27 15.14 7.83 14.2 8.59 13.46L11.3 10.79C11.69 10.41 12.31 10.41 12.7 10.79L15.43 13.48C16.17 14.21 16.73 15.13 16.91 16.16C17.16 17.52 16.84 18.8 16.14 19.82C18.03 18.67 19.43 16.76 19.85 14.52C20.46 11.25 19.04 8.14999 16.63 6.41999C16.3 6.16999 15.83 6.21999 15.56 6.54999Z" fill="#FFD438"/>
    </g>
    <defs>
        <clipPath id="clip0_1_927">
            <rect width="24" height="24" fill="white"/>
        </clipPath>
    </defs>
</svg>
