<svg width="61" height="34" viewBox="0 0 61 34" fill="none" xmlns="http://www.w3.org/2000/svg">
    <g clip-path="url(#clip0_1_1125)">
        <path d="M55.8167 23.6785C54.7925 23.6785 53.7912 23.9808 52.9396 24.5472C52.0879 25.1136 51.4241 25.9187 51.0322 26.8606C50.6402 27.8025 50.5376 28.8389 50.7374 29.8388C50.9373 30.8388 51.4305 31.7572 52.1548 32.4781C52.879 33.199 53.8018 33.69 54.8064 33.8889C55.811 34.0878 56.8523 33.9857 57.7986 33.5956C58.7449 33.2054 59.5537 32.5447 60.1227 31.697C60.6918 30.8493 60.9955 29.8527 60.9955 28.8332C60.9955 27.4661 60.4499 26.155 59.4787 25.1883C58.5075 24.2216 57.1902 23.6785 55.8167 23.6785Z" fill="url(#paint0_linear_1_1125)"/>
        <path d="M47.456 16.7165C46.8987 16.3277 46.2698 16.052 45.6054 15.9053C44.9409 15.7585 44.254 15.7436 43.5837 15.8613C42.9134 15.979 42.2731 16.2271 41.6992 16.5913C41.1253 16.9555 40.6292 17.4288 40.2393 17.984L40.2179 18.0128C39.9516 18.3747 39.5536 18.6186 39.109 18.6923C38.6644 18.7659 38.2085 18.6635 37.8387 18.407C37.4647 18.1441 37.2106 17.7444 37.1321 17.2954C37.0536 16.8464 37.1571 16.3847 37.4199 16.0115C38.2076 14.8903 38.5156 13.5035 38.2761 12.1562C38.0366 10.809 37.2691 9.6116 36.1427 8.82752C35.0162 8.04344 33.6229 7.73688 32.2694 7.97528C30.9158 8.21369 29.7129 8.97753 28.9251 10.0988L21.7967 20.2308C21.6667 20.4174 21.5009 20.5765 21.3088 20.6989C21.1167 20.8213 20.9021 20.9045 20.6774 20.9439C20.4528 20.9832 20.2226 20.9778 20 20.9281C19.7775 20.8783 19.5671 20.7851 19.3809 20.6538C19.0076 20.3905 18.754 19.9908 18.6755 19.542C18.597 19.0933 18.7001 18.6319 18.9621 18.2584L18.8097 18.4631L26.0829 8.11723C26.4729 7.56235 26.7494 6.93643 26.8964 6.27521C27.0434 5.61399 27.0582 4.93043 26.9398 4.26354C26.8214 3.59665 26.5722 2.9595 26.2064 2.38847C25.8406 1.81744 25.3655 1.32371 24.808 0.935473C24.2505 0.547235 23.6217 0.27209 22.9574 0.125748C22.2931 -0.0205931 21.6063 -0.0352637 20.9363 0.0825714C20.2663 0.200406 19.6262 0.44844 19.0525 0.812512C18.4788 1.17658 17.9828 1.64957 17.5927 2.20445L0.938358 25.8813C0.548308 26.4362 0.271879 27.0621 0.124855 27.7234C-0.0221695 28.3846 -0.0369133 29.0681 0.0814717 29.735C0.199857 30.4019 0.449048 31.0391 0.814819 31.6101C1.18059 32.1811 1.65578 32.6749 2.21325 33.0631C2.77072 33.4513 3.39956 33.7265 4.06386 33.8728C4.72817 34.0192 5.41493 34.0338 6.08493 33.916C6.75493 33.7982 7.39505 33.5501 7.96874 33.1861C8.54244 32.822 9.03847 32.349 9.42852 31.7941L14.9957 23.8831C15.2595 23.5108 15.661 23.258 16.1119 23.1801C16.5629 23.1022 17.0264 23.2057 17.4008 23.4677C17.7749 23.7282 18.0297 24.1259 18.1094 24.5733C18.1891 25.0208 18.0871 25.4814 17.8258 25.854C17.038 26.9751 16.73 28.3617 16.9693 29.7088C17.2087 31.0559 17.9759 32.2532 19.1022 33.0373C20.2285 33.8214 21.6215 34.128 22.9749 33.8898C24.3283 33.6515 25.5312 32.8879 26.319 31.7668L33.4566 21.6226C33.7194 21.2508 34.1194 20.9975 34.5692 20.9183C35.019 20.839 35.482 20.9402 35.8571 21.1996C36.226 21.4572 36.479 21.8483 36.5619 22.2892C36.6447 22.7301 36.5508 23.1858 36.3003 23.5587L34.6873 25.851C34.2972 26.4059 34.0208 27.0318 33.8738 27.693C33.7268 28.3542 33.712 29.0378 33.8304 29.7047C33.9488 30.3716 34.198 31.0087 34.5637 31.5798C34.9295 32.1508 35.4047 32.6445 35.9622 33.0328C36.5196 33.421 37.1485 33.6962 37.8128 33.8425C38.4771 33.9888 39.1639 34.0035 39.8339 33.8857C40.5039 33.7678 41.144 33.5198 41.7177 33.1557C42.2914 32.7917 42.7874 32.3187 43.1774 31.7638L48.7294 23.8725C49.5097 22.7541 49.8138 21.3739 49.5752 20.0332C49.3366 18.6924 48.5748 17.5001 47.456 16.7165Z" fill="url(#paint1_linear_1_1125)"/>
    </g>
    <defs>
        <linearGradient id="paint0_linear_1_1125" x1="60.9955" y1="28.8332" x2="50.6379" y2="28.8332" gradientUnits="userSpaceOnUse">
            <stop stop-color="#FFDA55"/>
            <stop offset="1" stop-color="#FFCD18"/>
        </linearGradient>
        <linearGradient id="paint1_linear_1_1125" x1="49.6546" y1="16.9993" x2="0.0024414" y2="16.9993" gradientUnits="userSpaceOnUse">
            <stop stop-color="#FFDA55"/>
            <stop offset="1" stop-color="#FFCD18"/>
        </linearGradient>
        <clipPath id="clip0_1_1125">
            <rect width="61" height="34" fill="white"/>
        </clipPath>
    </defs>
</svg>
